# xmcd
#
# Track frame offsets:
#	150
#	9935
#	19773
#	31807
#	43115
#	54045
#	64310
#	74240
#	85904
#	95478
#	105964
#	115436
#	126057
#	136520
#	147251
#	157705
#	169066
#	178519
#	189704
#	201343
#	211659
#	222766
#	232614
#	243590
#	254596
#	264730
#	274886
#	283849
#	293250
#	304200
#	314028
#	324497
#
# Disc length: 4477 seconds
#
# Revision: 1
# Processed by: cddbd v1.5.2PL0 Copyright (c) Steve Scherf et al.
# Submitted via: audiograbber 1.83.01
#
DISCID=cd117b20
DTITLE=Justin Tubb - Pepper Hot Baby
DYEAR=2009
DGENRE=Country
TTITLE0=Bachelor Man
TTITLE1=Pepper Hot Baby
TTITLE2=Ooh La La
TTITLE3=Something Called The Blues
TTITLE4=I'm Looking For A Date Tonight
TTITLE5=You're The Prettiest Thing That Ever Happened To Me
TTITLE6=I'm A Darn Good Man (For The Shape I'm In)
TTITLE7=Chuga-Chuga, Chica Mauga (Choo-Choo Train)
TTITLE8=Into Each Life Some Rain Must Fall
TTITLE9=Rock It On Down To My House
TTITLE10=I Saw Your Face In The Moon
TTITLE11=Sugar Lips
TTITLE12=Somebody Ughed On You
TTITLE13=Gone And Left Me Blues
TTITLE14=Looking Back To See (& Goldie Hill)
TTITLE15=Give Three Cheers For My Baby
TTITLE16=Bonaparte's Retreat
TTITLE17=Waterloo (& Goldie Hill)
TTITLE18=You Nearly Lose Your Mind
TTITLE19=My Heart's Not For Little Girls To Play With
TTITLE20=I'm A Big Boy Now
TTITLE21=If You'll Be My Love
TTITLE22=Sure Fire Kisses (& Goldie Hill)
TTITLE23=All Alone
TTITLE24=I Gotta Go Get My Baby
TTITLE25=I Miss You So (& Goldie Hill)
TTITLE26=Try Me One More Time
TTITLE27=There'll Be No Teardrops Tonight
TTITLE28=Giveaway Girl
TTITLE29=Almost Lonely
TTITLE30=Mine Is A Lonely Life (& Roger Miller)
TTITLE31=Buster's Gang
EXTD=
EXTT0=
EXTT1=
EXTT2=
EXTT3=
EXTT4=
EXTT5=
EXTT6=
EXTT7=
EXTT8=
EXTT9=
EXTT10=
EXTT11=
EXTT12=
EXTT13=
EXTT14=
EXTT15=
EXTT16=
EXTT17=
EXTT18=
EXTT19=
EXTT20=
EXTT21=
EXTT22=
EXTT23=
EXTT24=
EXTT25=
EXTT26=
EXTT27=
EXTT28=
EXTT29=
EXTT30=
EXTT31=
PLAYORDER=
